<?xml version="1.0" encoding="iso-8859-1"?>
<!-- Generator: Adobe Illustrator 18.0.0, SVG Export Plug-In . SVG Version: 6.00 Build 0)  -->
<!DOCTYPE svg PUBLIC "-//W3C//DTD SVG 1.1//EN" "http://www.w3.org/Graphics/SVG/1.1/DTD/svg11.dtd">
<svg version="1.1" id="Layer_1" xmlns="http://www.w3.org/2000/svg" xmlns:xlink="http://www.w3.org/1999/xlink" x="0px" y="0px"
	 viewBox="0 0 132 28" style="enable-background:new 0 0 132 28;" xml:space="preserve">
<g id="Shape_1">
	<g>
		<path style="fill:#336699;" d="M18.902,0.486L0,27.54h5.798L19.776,5.994l2.701,16.929L12.39,23.004l10.801,4.536h6.512
			L24.065,0.486H18.902z M104.916,1.296C104.36,1.053,100.627,0,97.133,0c-6.115,0-10.722,2.997-10.722,7.938
			c0,3.159,1.826,4.941,5.877,7.776c3.017,2.025,4.209,3.159,4.209,4.941c0,1.539-1.113,3.969-5.162,3.969
			c-3.098,0-6.195-1.944-6.831-2.43c-0.318-0.324-1.588-0.972-1.747,0.243l-0.635,3.564c0,0.405,0,0.567,0.397,0.73
			c1.668,0.728,6.036,1.295,9.134,1.295c9.53,0,11.039-6.075,11.039-8.343c0-3.726-2.701-5.832-5.162-7.533
			c-3.256-2.187-5.004-3.564-5.004-5.427c0-0.648,0.238-3.24,4.288-3.24c3.097,0,4.686,1.134,5.877,1.944
			c0.318,0.243,1.668,1.134,1.906-0.567l0.556-2.835C105.154,1.701,105.154,1.458,104.916,1.296z M45.826,12.15
			c-3.256-2.187-5.004-3.564-5.004-5.427c0-0.648,0.239-3.24,4.289-3.24c3.098,0,4.686,1.134,5.877,1.944
			c0.317,0.243,1.668,1.134,1.906-0.567l0.556-2.835c0-0.324,0-0.567-0.239-0.729C52.656,1.053,48.924,0,45.429,0
			c-6.115,0-10.722,2.997-10.722,7.938c0,3.159,1.827,4.941,5.957,7.776c2.939,2.025,4.13,3.159,4.13,4.941
			c0,1.539-1.112,3.969-5.163,3.969c-3.018,0-6.115-1.944-6.83-2.43c-0.318-0.324-1.588-0.972-1.747,0.243l-0.636,3.564
			c0,0.405,0,0.567,0.397,0.73c1.747,0.728,6.036,1.295,9.133,1.295c9.531,0,11.119-6.075,11.119-8.343
			C51.068,15.957,48.288,13.851,45.826,12.15z M73.782,1.863C73.226,1.539,70.05,0,66.476,0C60.36,0,55.754,2.997,55.754,7.938
			c0,3.159,1.826,4.941,5.956,7.776c3.018,2.025,4.21,3.159,4.21,4.941c0,1.539-1.112,3.969-5.163,3.969
			c-3.098,0-6.274-1.944-6.99-2.511c-0.317-0.243-1.509-0.891-1.747,0.324l-0.556,3.564c0,0.405,0,0.567,0.477,0.73
			c1.668,0.728,6.036,1.295,9.055,1.295c9.61,0,11.118-6.075,11.118-8.343c0-3.726-2.779-5.832-5.162-7.533
			c-3.335-2.187-5.004-3.564-5.004-5.427c0-0.648,0.238-3.24,4.21-3.24c3.177,0,11.198,4.455,11.198,4.455l-3.574,19.683h6.354
			l3.892-21.384L73.782,1.863z M106.663,0.648l-0.556,3.483h9.212l-4.527,23.49h6.274l4.369-23.328h9.848l0.636-3.645H106.663z
			 M85.14,0H73.624l10.722,4.536L85.14,0z"/>
	</g>
</g>
<image style="display:none;overflow:visible;" width="132" height="28" xlink:href="bluelightlogo.png"  transform="matrix(0.9999 0 0 0.9999 13.3901 7.1667)">
</image>
</svg>
